<svg width="518" height="430" viewBox="0 0 518 430" fill="none" xmlns="http://www.w3.org/2000/svg">
<path d="M421 350C474.572 350 518 306.572 518 253C518 199.428 474.572 156 421 156C367.428 156 324 199.428 324 253C324 306.572 367.428 350 421 350Z" fill="white" fill-opacity="0.05"/>
<path d="M97 194C150.572 194 194 150.572 194 97C194 43.4284 150.572 0 97 0C43.4284 0 0 43.4284 0 97C0 150.572 43.4284 194 97 194Z" fill="white" fill-opacity="0.05"/>
<path d="M152 430C205.572 430 249 386.572 249 333C249 279.428 205.572 236 152 236C98.4284 236 55 279.428 55 333C55 386.572 98.4284 430 152 430Z" fill="white" fill-opacity="0.05"/>
</svg>
